<?xml version="1.0" encoding="UTF-8"?>
<svg id="Layer_2" data-name="Layer 2" xmlns="http://www.w3.org/2000/svg" viewBox="0 0 113.81 28.06">
  <defs>
    <style>
      .cls-1 {
        fill: #fff;
        stroke-width: 0px;
      }
    </style>
  </defs>
  <g id="Layer_1-2" data-name="Layer 1">
    <g>
      <path class="cls-1" d="m17.33,9.42v-.05c0-5.18,4.14-9.37,9.71-9.37s9.66,4.16,9.66,9.32v.05c0,5.18-4.14,9.37-9.71,9.37s-9.66-4.16-9.66-9.32Zm14.45,0v-.05c0-2.7-1.93-5.03-4.78-5.03s-4.73,2.28-4.73,4.98v.05c0,2.7,1.93,5.03,4.78,5.03s4.73-2.28,4.73-4.98Z"/>
      <path class="cls-1" d="m39.68.35h8.47c2.68,0,4.54.67,5.75,1.93,1.07,1.02,1.59,2.4,1.59,4.16v.07c0,2.8-1.46,4.58-3.74,5.55l4.34,6.32h-5.55l-3.67-5.53h-2.4v5.53h-4.78V.35Zm8.25,8.7c1.76,0,2.75-.87,2.75-2.23v-.05c0-1.49-1.04-2.26-2.8-2.26h-3.42v4.53h3.47Z"/>
      <path class="cls-1" d="m58.22,10.51V.35h4.83v10.06c0,2.68,1.34,3.97,3.44,3.97s3.44-1.24,3.44-3.82V.35h4.83v10.04c0,5.75-3.27,8.33-8.33,8.33s-8.23-2.63-8.23-8.2Z"/>
      <path class="cls-1" d="m76.71.35h5.33l4.24,11.67L90.52.35h5.23l-7.31,18.16h-4.41L76.71.35Z"/>
      <path class="cls-1" d="m101.55.22h4.58l7.68,18.16h-5.11l-1.36-3.4h-7.11l-1.36,3.4h-5.01L101.55.22Zm4.34,10.95l-2.08-5.25-2.11,5.25h4.19Z"/>
      <g>
        <path class="cls-1" d="m20.11,27.99h-.62v-4.74h.62v4.74Z"/>
        <path class="cls-1" d="m30.23,27.99h-.63l-2.39-3.65v3.65h-.63v-4.74h.63l2.39,3.67v-3.67h.62v4.74Z"/>
        <path class="cls-1" d="m36.67,27.99v-4.74h1.34c.41,0,.78.09,1.09.27s.56.44.73.78c.17.34.26.72.26,1.16v.3c0,.45-.09.84-.26,1.18-.17.34-.42.59-.74.77-.32.18-.69.27-1.12.28h-1.31Zm.62-4.23v3.72h.66c.48,0,.86-.15,1.12-.45.27-.3.4-.73.4-1.28v-.28c0-.54-.13-.96-.38-1.26-.25-.3-.61-.45-1.08-.45h-.73Z"/>
        <path class="cls-1" d="m49.71,23.25v3.22c0,.45-.14.81-.42,1.1s-.66.44-1.13.48h-.17c-.52,0-.93-.13-1.24-.41s-.46-.67-.47-1.16v-3.23h.62v3.21c0,.34.09.61.28.8s.46.28.81.28.62-.09.81-.28.28-.45.28-.8v-3.21h.63Z"/>
        <path class="cls-1" d="m57.43,25.88c-.54-.15-.93-.34-1.17-.57-.24-.22-.37-.5-.37-.83,0-.37.15-.68.45-.93.3-.24.69-.37,1.16-.37.33,0,.62.06.87.19s.45.3.59.52c.14.22.21.46.21.73h-.63c0-.29-.09-.51-.27-.68-.18-.16-.44-.25-.77-.25-.31,0-.55.07-.72.2-.17.14-.26.32-.26.57,0,.19.08.36.25.49.16.13.44.26.84.37.39.11.7.23.92.37s.39.29.49.47c.11.18.16.39.16.63,0,.38-.15.69-.45.92s-.7.35-1.2.35c-.33,0-.63-.06-.91-.19s-.5-.3-.65-.51c-.15-.22-.23-.46-.23-.74h.63c0,.29.11.51.32.68.21.17.49.25.85.25.33,0,.58-.07.76-.2s.26-.32.26-.55-.08-.41-.24-.54-.46-.25-.89-.38Z"/>
        <path class="cls-1" d="m68.6,23.77h-1.52v4.23h-.62v-4.23h-1.52v-.51h3.67v.51Z"/>
        <path class="cls-1" d="m76.37,26.08h-1.11v1.92h-.63v-4.74h1.57c.53,0,.94.12,1.23.36s.43.6.43,1.06c0,.3-.08.55-.24.77-.16.22-.38.38-.67.49l1.11,2.01v.04h-.67l-1.03-1.92Zm-1.11-.51h.96c.31,0,.56-.08.74-.24.18-.16.27-.38.27-.65,0-.29-.09-.52-.26-.67-.17-.16-.43-.24-.76-.24h-.96v1.8Z"/>
        <path class="cls-1" d="m84.74,27.99h-.62v-4.74h.62v4.74Z"/>
        <path class="cls-1" d="m93.89,26.75h-1.99l-.45,1.24h-.64l1.81-4.74h.55l1.81,4.74h-.64l-.45-1.24Zm-1.8-.51h1.61l-.81-2.22-.8,2.22Z"/>
        <path class="cls-1" d="m101.58,27.48h2.25v.51h-2.87v-4.74h.63v4.23Z"/>
      </g>
      <g>
        <path class="cls-1" d="m7.16,20.05c-.57,0-1.13-.21-1.56-.59-.48-.42-.68-.94-.76-1.56-.11-.84-.54-1.53-1.29-1.94-.7-.38-1.55-.41-2.25-.05-.57.3-1,.82-1.19,1.43-.02.07-.04.15-.06.22,0,.01,0,.02,0,.04-.12.64.07,1.31.42,1.85.64.97,1.75,1.67,2.84,2,.24.07.49.12.74.16.16.02.31.03.47.03,1.31,0,2.49-.65,3.21-1.65-.18.04-.37.07-.56.07Z"/>
        <path class="cls-1" d="m9.5.35v17.36s0,.02,0,.02c-.03,2.73-2.25,4.94-4.99,4.94-.47,0-.92-.06-1.35-.19,0,0,0,0,0,0-.05-.01-.1-.03-.15-.04-.7-.21-1.36-.53-1.93-.93,1.27,2.02,3.52,3.37,6.08,3.37,3.96,0,7.18-3.22,7.18-7.18V.35h-4.83Z"/>
      </g>
    </g>
  </g>
</svg>